<mxfile host="app.diagrams.net" modified="2022-06-30T02:54:04.773Z" agent="5.0 (Windows NT 10.0; Win64; x64) AppleWebKit/537.36 (KHTML, like Gecko) Chrome/103.0.5060.53 Safari/537.36 Edg/103.0.1264.37" etag="4w5b3hPs_nU_wcl2y2X3" version="20.0.4" type="github">
  <diagram id="M9RLUgZmqZ61lswGK2GR" name="Page-1">
    <mxGraphModel dx="1422" dy="762" grid="1" gridSize="10" guides="1" tooltips="1" connect="1" arrows="1" fold="1" page="1" pageScale="1" pageWidth="827" pageHeight="1169" math="0" shadow="0">
      <root>
        <mxCell id="0" />
        <mxCell id="1" parent="0" />
        <mxCell id="gEI9JCwkbFNJMVoZVxrS-17" value="yes" style="edgeStyle=orthogonalEdgeStyle;rounded=0;orthogonalLoop=1;jettySize=auto;html=1;" edge="1" parent="1" source="gEI9JCwkbFNJMVoZVxrS-1" target="gEI9JCwkbFNJMVoZVxrS-7">
          <mxGeometry relative="1" as="geometry" />
        </mxCell>
        <mxCell id="gEI9JCwkbFNJMVoZVxrS-1" value="Bag.Count &amp;gt;= 76" style="rhombus;whiteSpace=wrap;html=1;fillColor=#ffffc0;strokeColor=#ff0000;" vertex="1" parent="1">
          <mxGeometry x="200" y="400" width="100" height="40" as="geometry" />
        </mxCell>
        <mxCell id="gEI9JCwkbFNJMVoZVxrS-20" value="" style="edgeStyle=orthogonalEdgeStyle;rounded=0;orthogonalLoop=1;jettySize=auto;html=1;" edge="1" parent="1" source="gEI9JCwkbFNJMVoZVxrS-7" target="gEI9JCwkbFNJMVoZVxrS-19">
          <mxGeometry relative="1" as="geometry" />
        </mxCell>
        <mxCell id="gEI9JCwkbFNJMVoZVxrS-7" value="&lt;span style=&quot;text-align: left;&quot;&gt;&quot;bags full&quot;&lt;br&gt;RaiseEvent(abort,true)&lt;br&gt;&lt;/span&gt;" style="whiteSpace=wrap;html=1;fillColor=#ffffc0;strokeColor=#ff0000;rounded=1;" vertex="1" parent="1">
          <mxGeometry x="185" y="480" width="130" height="30" as="geometry" />
        </mxCell>
        <mxCell id="gEI9JCwkbFNJMVoZVxrS-18" value="no" style="edgeStyle=orthogonalEdgeStyle;rounded=0;orthogonalLoop=1;jettySize=auto;html=1;exitX=1;exitY=0.5;exitDx=0;exitDy=0;entryX=0.5;entryY=0;entryDx=0;entryDy=0;" edge="1" parent="1" source="gEI9JCwkbFNJMVoZVxrS-1" target="gEI9JCwkbFNJMVoZVxrS-19">
          <mxGeometry x="-0.4074" relative="1" as="geometry">
            <mxPoint x="250" y="440" as="sourcePoint" />
            <mxPoint x="260" y="550" as="targetPoint" />
            <Array as="points">
              <mxPoint x="350" y="420" />
              <mxPoint x="350" y="530" />
              <mxPoint x="250" y="530" />
            </Array>
            <mxPoint as="offset" />
          </mxGeometry>
        </mxCell>
        <mxCell id="gEI9JCwkbFNJMVoZVxrS-19" value="" style="ellipse;html=1;shape=endState;fillColor=#000000;strokeColor=#ff0000;rounded=1;" vertex="1" parent="1">
          <mxGeometry x="235" y="600" width="30" height="30" as="geometry" />
        </mxCell>
        <mxCell id="gEI9JCwkbFNJMVoZVxrS-24" value="" style="edgeStyle=orthogonalEdgeStyle;rounded=0;orthogonalLoop=1;jettySize=auto;html=1;" edge="1" parent="1" source="gEI9JCwkbFNJMVoZVxrS-22" target="gEI9JCwkbFNJMVoZVxrS-1">
          <mxGeometry relative="1" as="geometry" />
        </mxCell>
        <mxCell id="gEI9JCwkbFNJMVoZVxrS-22" value="&lt;span style=&quot;text-align: left;&quot;&gt;RaiseEvent(loot,false)&lt;/span&gt;" style="rounded=1;whiteSpace=wrap;html=1;arcSize=40;fontColor=#000000;fillColor=#ffffc0;strokeColor=#ff0000;" vertex="1" parent="1">
          <mxGeometry x="190" y="330" width="120" height="40" as="geometry" />
        </mxCell>
      </root>
    </mxGraphModel>
  </diagram>
</mxfile>
